<svg xmlns="http://www.w3.org/2000/svg" xmlns:xlink="http://www.w3.org/1999/xlink" width="1500" zoomAndPan="magnify" viewBox="0 0 1125 374.999991" height="500" preserveAspectRatio="xMidYMid meet" version="1.2"><defs/><g id="7b696a9076"><g style="fill:#545454;fill-opacity:1;"><g transform="translate(-48.700846, 364.991081)"><path style="stroke:none" d="M 45.5 -158.234375 L 57.921875 -158.234375 C 59.640625 -138.921875 64.203125 -120.21875 71.609375 -102.125 C 79.023438 -84.03125 88.503906 -67.828125 100.046875 -53.515625 C 111.597656 -39.210938 124.351562 -27.921875 138.3125 -19.640625 C 152.28125 -11.367188 166.675781 -7.234375 181.5 -7.234375 C 202.1875 -7.234375 218.390625 -10.765625 230.109375 -17.828125 C 241.828125 -24.898438 250.1875 -33.863281 255.1875 -44.71875 C 260.1875 -55.582031 262.6875 -66.53125 262.6875 -77.5625 C 262.6875 -96.175781 257.082031 -110.132812 245.875 -119.4375 C 234.675781 -128.75 220.972656 -136.679688 204.765625 -143.234375 L 126.171875 -174.78125 C 98.242188 -185.8125 77.988281 -200.203125 65.40625 -217.953125 C 52.820312 -235.703125 46.53125 -256.472656 46.53125 -280.265625 C 46.53125 -304.046875 51.359375 -323.085938 61.015625 -337.390625 C 70.671875 -351.703125 83.253906 -361.960938 98.765625 -368.171875 C 114.273438 -374.378906 130.648438 -377.484375 147.890625 -377.484375 C 159.265625 -377.484375 170.035156 -375.410156 180.203125 -371.265625 C 190.378906 -367.128906 199.257812 -362.648438 206.84375 -357.828125 C 214.425781 -353.003906 219.941406 -349.210938 223.390625 -346.453125 C 226.835938 -344.035156 230.195312 -341.878906 233.46875 -339.984375 C 236.738281 -338.085938 239.925781 -337.140625 243.03125 -337.140625 C 246.476562 -337.140625 248.976562 -338.347656 250.53125 -340.765625 C 252.082031 -343.179688 253.03125 -346.113281 253.375 -349.5625 L 255.4375 -368.171875 L 267.859375 -368.171875 L 273.03125 -233.71875 L 260.609375 -233.71875 C 255.097656 -258.882812 246.304688 -281.035156 234.234375 -300.171875 C 222.171875 -319.304688 208.296875 -334.21875 192.609375 -344.90625 C 176.929688 -355.59375 160.644531 -360.9375 143.75 -360.9375 C 125.476562 -360.9375 109.878906 -354.898438 96.953125 -342.828125 C 84.023438 -330.765625 77.5625 -313.015625 77.5625 -289.578125 C 77.5625 -273.023438 81.957031 -260.523438 90.75 -252.078125 C 99.539062 -243.640625 110.832031 -236.660156 124.625 -231.140625 L 224.421875 -191.328125 C 248.890625 -181.671875 266.550781 -167.878906 277.40625 -149.953125 C 288.269531 -132.023438 293.703125 -114.445312 293.703125 -97.21875 C 293.703125 -80.320312 289.820312 -63.6875 282.0625 -47.3125 C 274.3125 -30.9375 262.25 -17.40625 245.875 -6.71875 C 229.5 3.96875 208.039062 9.3125 181.5 9.3125 C 170.46875 9.3125 159.863281 7.5 149.6875 3.875 C 139.519531 0.257812 130.300781 -3.957031 122.03125 -8.78125 C 113.757812 -13.613281 107.210938 -17.753906 102.390625 -21.203125 C 95.835938 -26.023438 90.316406 -29.988281 85.828125 -33.09375 C 81.347656 -36.195312 78.25 -37.75 76.53125 -37.75 C 72.050781 -37.75 68.863281 -35.503906 66.96875 -31.015625 C 65.070312 -26.535156 63.773438 -21.367188 63.078125 -15.515625 L 61.015625 5.171875 L 49.125 5.171875 Z M 45.5 -158.234375 "/></g></g><g style="fill:#545454;fill-opacity:1;"><g transform="translate(271.89269, 364.991081)"><path style="stroke:none" d="M 32.0625 -351.625 L 32.0625 -368.171875 L 320.59375 -368.171875 L 322.671875 -251.3125 L 309.734375 -251.3125 C 309.734375 -251.3125 309.390625 -255.015625 308.703125 -262.421875 C 308.015625 -269.835938 306.203125 -278.972656 303.265625 -289.828125 C 300.335938 -300.691406 295.425781 -311.289062 288.53125 -321.625 C 280.601562 -333.695312 271.125 -341.710938 260.09375 -345.671875 C 249.0625 -349.640625 238.375 -351.625 228.03125 -351.625 L 144.78125 -351.625 C 135.476562 -351.625 130.828125 -346.96875 130.828125 -337.65625 L 130.828125 -196.5 L 176.328125 -196.5 C 189.773438 -196.5 199.425781 -200.375 205.28125 -208.125 C 211.144531 -215.882812 214.851562 -225.28125 216.40625 -236.3125 C 217.957031 -247.34375 218.734375 -257.859375 218.734375 -267.859375 L 232.171875 -267.859375 L 232.171875 -106 L 218.734375 -106 C 218.734375 -116.34375 217.957031 -127.03125 216.40625 -138.0625 C 214.851562 -149.09375 211.144531 -158.484375 205.28125 -166.234375 C 199.425781 -173.992188 189.773438 -177.875 176.328125 -177.875 L 130.828125 -177.875 L 130.828125 -30.515625 C 130.828125 -21.203125 135.476562 -16.546875 144.78125 -16.546875 L 190.296875 -16.546875 L 190.296875 0 L 35.15625 0 L 35.15625 -16.546875 L 69.296875 -16.546875 C 78.597656 -16.546875 83.25 -21.203125 83.25 -30.515625 L 83.25 -337.65625 C 83.25 -346.96875 78.597656 -351.625 69.296875 -351.625 Z M 32.0625 -351.625 "/></g></g><g style="fill:#545454;fill-opacity:1;"><g transform="translate(621.443107, 364.991081)"><path style="stroke:none" d="M 19.65625 -351.625 L 19.65625 -368.171875 L 172.703125 -368.171875 L 172.703125 -351.625 L 147.890625 -351.625 C 143.066406 -351.625 138.929688 -350.414062 135.484375 -348 C 132.035156 -345.59375 130.3125 -342.492188 130.3125 -338.703125 C 130.3125 -337.316406 130.566406 -335.503906 131.078125 -333.265625 C 131.597656 -331.023438 132.03125 -329.039062 132.375 -327.3125 L 201.15625 -89.453125 L 263.71875 -315.9375 L 258.546875 -332.484375 C 256.128906 -340.078125 250.867188 -345.164062 242.765625 -347.75 C 234.671875 -350.332031 227.691406 -351.625 221.828125 -351.625 L 206.84375 -351.625 L 206.84375 -368.171875 L 359.890625 -368.171875 L 359.890625 -351.625 L 339.734375 -351.625 C 330.078125 -351.625 323.265625 -349.125 319.296875 -344.125 C 315.335938 -339.125 313.359375 -332.660156 313.359375 -324.734375 C 313.359375 -321.285156 313.613281 -318.441406 314.125 -316.203125 C 314.644531 -313.960938 315.425781 -311.460938 316.46875 -308.703125 L 381.609375 -84.796875 L 445.734375 -288.53125 C 447.804688 -296.46875 449.359375 -303.191406 450.390625 -308.703125 C 451.421875 -314.222656 451.9375 -320.773438 451.9375 -328.359375 C 451.9375 -334.898438 449.003906 -340.410156 443.140625 -344.890625 C 437.285156 -349.378906 428.84375 -351.625 417.8125 -351.625 L 400.234375 -351.625 L 400.234375 -368.171875 L 539.84375 -368.171875 L 539.84375 -351.625 L 517.609375 -351.625 C 504.515625 -351.625 494.945312 -347.570312 488.90625 -339.46875 C 482.875 -331.363281 478.476562 -322.832031 475.71875 -313.875 L 372.828125 9.3125 L 359.890625 9.3125 L 275.09375 -278.203125 L 193.390625 9.3125 L 180.46875 9.3125 L 82.21875 -328.875 C 78.769531 -338.175781 74.546875 -344.289062 69.546875 -347.21875 C 64.546875 -350.15625 58.597656 -351.625 51.703125 -351.625 Z M 19.65625 -351.625 "/></g></g><g style="fill:#b4b4b4;fill-opacity:1;"><g transform="translate(316.858902, 309.429926)"><path style="stroke:none" d="M 7.140625 -36.328125 C 7.140625 -41.429688 7.785156 -46.28125 9.078125 -50.875 C 10.367188 -55.46875 12.238281 -59.53125 14.6875 -63.0625 C 17.144531 -66.601562 20.140625 -69.394531 23.671875 -71.4375 C 27.210938 -73.476562 31.226562 -74.5 35.71875 -74.5 C 38.300781 -74.5 40.734375 -73.953125 43.015625 -72.859375 C 45.296875 -71.773438 47.082031 -70.757812 48.375 -69.8125 C 49.46875 -69.0625 50.351562 -68.414062 51.03125 -67.875 C 52.050781 -66.914062 53.003906 -66.4375 53.890625 -66.4375 C 54.429688 -66.4375 54.835938 -66.625 55.109375 -67 C 55.378906 -67.375 55.65625 -67.9375 55.9375 -68.6875 L 57.671875 -73.6875 L 60.21875 -73.6875 L 60.21875 -45.3125 L 57.671875 -45.3125 C 56.097656 -51.09375 54.101562 -55.90625 51.6875 -59.75 C 49.28125 -63.601562 46.695312 -66.476562 43.9375 -68.375 C 41.175781 -70.28125 38.4375 -71.234375 35.71875 -71.234375 C 30.820312 -71.234375 27.097656 -69.769531 24.546875 -66.84375 C 21.992188 -63.925781 20.257812 -59.847656 19.34375 -54.609375 C 18.425781 -49.367188 17.96875 -43.273438 17.96875 -36.328125 C 17.96875 -29.390625 18.425781 -23.300781 19.34375 -18.0625 C 20.257812 -12.820312 21.992188 -8.738281 24.546875 -5.8125 C 27.097656 -2.882812 30.820312 -1.421875 35.71875 -1.421875 C 38.300781 -1.421875 40.75 -2.335938 43.0625 -4.171875 C 45.382812 -6.015625 47.257812 -8.3125 48.6875 -11.0625 C 50.113281 -13.820312 50.828125 -16.566406 50.828125 -19.296875 L 50.828125 -30.109375 C 50.828125 -31.941406 49.910156 -32.859375 48.078125 -32.859375 L 40.71875 -32.859375 L 40.71875 -36.125 L 70.421875 -36.125 L 70.421875 -32.859375 L 62.96875 -32.859375 C 61.132812 -32.859375 60.21875 -31.941406 60.21875 -30.109375 L 60.21875 1.328125 L 56.953125 1.328125 L 56.953125 -7.953125 C 56.953125 -10.273438 56.375 -11.4375 55.21875 -11.4375 C 54.394531 -11.4375 53.691406 -11.09375 53.109375 -10.40625 C 52.535156 -9.726562 52.046875 -9.050781 51.640625 -8.375 C 50.828125 -7.082031 49.632812 -5.632812 48.0625 -4.03125 C 46.5 -2.4375 44.660156 -1.0625 42.546875 0.09375 C 40.441406 1.257812 38.164062 1.84375 35.71875 1.84375 C 31.226562 1.84375 27.210938 0.820312 23.671875 -1.21875 C 20.140625 -3.257812 17.144531 -6.066406 14.6875 -9.640625 C 12.238281 -13.210938 10.367188 -17.273438 9.078125 -21.828125 C 7.785156 -26.390625 7.140625 -31.222656 7.140625 -36.328125 Z M 7.140625 -36.328125 "/></g></g><g style="fill:#b4b4b4;fill-opacity:1;"><g transform="translate(387.068442, 309.429926)"><path style="stroke:none" d="M 27.15625 -25.109375 L 48.078125 -25.109375 L 37.453125 -56.03125 Z M 4.6875 0 L 4.6875 -3.265625 L 8.46875 -3.265625 C 10.238281 -3.265625 11.664062 -3.65625 12.75 -4.4375 C 13.84375 -5.21875 14.726562 -6.1875 15.40625 -7.34375 C 16.09375 -8.5 16.640625 -9.625 17.046875 -10.71875 L 38.984375 -72.671875 L 41.75 -72.671875 L 63.890625 -7.75 C 64.640625 -5.988281 65.503906 -4.800781 66.484375 -4.1875 C 67.472656 -3.570312 68.648438 -3.265625 70.015625 -3.265625 L 75.734375 -3.265625 L 75.734375 0 L 44.09375 0 L 44.09375 -3.265625 L 50.828125 -3.265625 C 51.847656 -3.265625 52.695312 -3.519531 53.375 -4.03125 C 54.0625 -4.539062 54.40625 -5.132812 54.40625 -5.8125 C 54.40625 -6.15625 54.367188 -6.53125 54.296875 -6.9375 C 54.222656 -7.34375 54.117188 -7.71875 53.984375 -8.0625 L 49.390625 -21.4375 L 25.828125 -21.4375 L 23.46875 -14.796875 C 23.132812 -13.773438 22.8125 -12.71875 22.5 -11.625 C 22.195312 -10.539062 22.046875 -9.554688 22.046875 -8.671875 C 22.046875 -7.585938 22.382812 -6.414062 23.0625 -5.15625 C 23.75 -3.894531 25.144531 -3.265625 27.25 -3.265625 L 32.65625 -3.265625 L 32.65625 0 Z M 4.6875 0 "/></g></g><g style="fill:#b4b4b4;fill-opacity:1;"><g transform="translate(465.034221, 309.429926)"><path style="stroke:none" d="M 6.328125 0 L 6.328125 -3.265625 L 10 -3.265625 C 11.90625 -3.265625 13.453125 -3.992188 14.640625 -5.453125 C 15.835938 -6.921875 16.4375 -8.914062 16.4375 -11.4375 L 16.4375 -66.640625 C 16.4375 -68.484375 15.515625 -69.40625 13.671875 -69.40625 L 6.328125 -69.40625 L 6.328125 -72.671875 L 27.96875 -72.671875 L 44.59375 -16.4375 L 60.109375 -72.671875 L 81.234375 -72.671875 L 81.234375 -69.40625 L 73.890625 -69.40625 C 72.054688 -69.40625 71.140625 -68.484375 71.140625 -66.640625 L 71.140625 -6.015625 C 71.140625 -4.179688 72.054688 -3.265625 73.890625 -3.265625 L 81.234375 -3.265625 L 81.234375 0 L 51.640625 0 L 51.640625 -3.265625 L 58.984375 -3.265625 C 60.828125 -3.265625 61.75 -4.179688 61.75 -6.015625 L 61.75 -66.234375 L 43.078125 1.21875 L 40.625 1.21875 L 21.125 -63.484375 L 20.515625 -63.484375 L 20.515625 -11.4375 C 20.515625 -8.914062 21.109375 -6.921875 22.296875 -5.453125 C 23.492188 -3.992188 25.039062 -3.265625 26.9375 -3.265625 L 30.625 -3.265625 L 30.625 0 Z M 6.328125 0 "/></g></g><g style="fill:#b4b4b4;fill-opacity:1;"><g transform="translate(550.551664, 309.429926)"><path style="stroke:none" d="M 25.828125 -6.015625 C 25.828125 -4.179688 26.742188 -3.265625 28.578125 -3.265625 L 39.59375 -3.265625 C 41.976562 -3.265625 44.257812 -3.722656 46.4375 -4.640625 C 48.613281 -5.554688 50.398438 -7.207031 51.796875 -9.59375 C 53.191406 -11.976562 53.890625 -15.378906 53.890625 -19.796875 C 53.890625 -24.222656 53.191406 -27.625 51.796875 -30 C 50.398438 -32.382812 48.613281 -34.035156 46.4375 -34.953125 C 44.257812 -35.867188 41.976562 -36.328125 39.59375 -36.328125 L 25.828125 -36.328125 Z M 6.328125 0 L 6.328125 -3.265625 L 13.671875 -3.265625 C 15.515625 -3.265625 16.4375 -4.179688 16.4375 -6.015625 L 16.4375 -66.640625 C 16.4375 -68.484375 15.515625 -69.40625 13.671875 -69.40625 L 6.328125 -69.40625 L 6.328125 -72.671875 L 39.59375 -72.671875 C 43.675781 -72.671875 47.453125 -71.9375 50.921875 -70.46875 C 54.398438 -69.007812 57.191406 -66.96875 59.296875 -64.34375 C 61.410156 -61.726562 62.46875 -58.71875 62.46875 -55.3125 C 62.46875 -52.050781 61.679688 -49.210938 60.109375 -46.796875 C 58.546875 -44.378906 56.570312 -42.457031 54.1875 -41.03125 C 51.8125 -39.601562 49.363281 -38.613281 46.84375 -38.0625 L 46.84375 -37.65625 C 49.5625 -37.457031 52.28125 -36.609375 55 -35.109375 C 57.726562 -33.609375 60.023438 -31.566406 61.890625 -28.984375 C 63.765625 -26.398438 64.703125 -23.335938 64.703125 -19.796875 C 64.703125 -15.515625 63.597656 -11.890625 61.390625 -8.921875 C 59.179688 -5.960938 56.253906 -3.734375 52.609375 -2.234375 C 48.972656 -0.742188 45.007812 0 40.71875 0 Z M 25.828125 -39.59375 L 39.1875 -39.59375 C 43.207031 -39.59375 46.238281 -40.320312 48.28125 -41.78125 C 50.320312 -43.25 51.695312 -45.191406 52.40625 -47.609375 C 53.125 -50.023438 53.484375 -52.59375 53.484375 -55.3125 C 53.484375 -58.101562 52.867188 -60.550781 51.640625 -62.65625 C 50.421875 -64.769531 48.804688 -66.421875 46.796875 -67.609375 C 44.785156 -68.804688 42.523438 -69.40625 40.015625 -69.40625 L 28.578125 -69.40625 C 26.742188 -69.40625 25.828125 -68.484375 25.828125 -66.640625 Z M 25.828125 -39.59375 "/></g></g><g style="fill:#b4b4b4;fill-opacity:1;"><g transform="translate(620.965779, 309.429926)"><path style="stroke:none" d="M 6.328125 0 L 6.328125 -3.265625 L 13.671875 -3.265625 C 15.515625 -3.265625 16.4375 -4.179688 16.4375 -6.015625 L 16.4375 -66.640625 C 16.4375 -68.484375 15.515625 -69.40625 13.671875 -69.40625 L 6.328125 -69.40625 L 6.328125 -72.671875 L 37.5625 -72.671875 L 37.5625 -69.40625 L 28.578125 -69.40625 C 26.742188 -69.40625 25.828125 -68.484375 25.828125 -66.640625 L 25.828125 -6.015625 C 25.828125 -4.179688 26.742188 -3.265625 28.578125 -3.265625 L 42.859375 -3.265625 C 44.359375 -3.265625 46.226562 -3.65625 48.46875 -4.4375 C 50.71875 -5.21875 52.59375 -6.597656 54.09375 -8.578125 C 55.25 -10.140625 56.21875 -11.988281 57 -14.125 C 57.78125 -16.269531 58.375 -18.363281 58.78125 -20.40625 C 59.195312 -22.445312 59.488281 -24.128906 59.65625 -25.453125 C 59.820312 -26.785156 59.90625 -27.453125 59.90625 -27.453125 L 62.46875 -27.453125 L 61.140625 0 Z M 6.328125 0 "/></g></g><g style="fill:#b4b4b4;fill-opacity:1;"><g transform="translate(689.338927, 309.429926)"><path style="stroke:none" d="M 6.328125 0 L 6.328125 -3.265625 L 13.671875 -3.265625 C 15.515625 -3.265625 16.4375 -4.179688 16.4375 -6.015625 L 16.4375 -66.640625 C 16.4375 -68.484375 15.515625 -69.40625 13.671875 -69.40625 L 6.328125 -69.40625 L 6.328125 -72.671875 L 35.921875 -72.671875 L 35.921875 -69.40625 L 28.578125 -69.40625 C 26.742188 -69.40625 25.828125 -68.484375 25.828125 -66.640625 L 25.828125 -6.015625 C 25.828125 -4.179688 26.742188 -3.265625 28.578125 -3.265625 L 35.921875 -3.265625 L 35.921875 0 Z M 6.328125 0 "/></g></g><g style="fill:#b4b4b4;fill-opacity:1;"><g transform="translate(729.546416, 309.429926)"><path style="stroke:none" d="M 6.328125 0 L 6.328125 -3.265625 L 10 -3.265625 C 11.976562 -3.265625 13.546875 -3.992188 14.703125 -5.453125 C 15.859375 -6.921875 16.4375 -8.914062 16.4375 -11.4375 L 16.4375 -66.640625 C 16.363281 -68.484375 15.441406 -69.40625 13.671875 -69.40625 L 6.328125 -69.40625 L 6.328125 -72.671875 L 25.625 -72.671875 L 61.03125 -15.71875 L 61.03125 -61.234375 C 61.03125 -63.816406 60.453125 -65.820312 59.296875 -67.25 C 58.140625 -68.6875 56.609375 -69.40625 54.703125 -69.40625 L 51.03125 -69.40625 L 51.03125 -72.671875 L 75.328125 -72.671875 L 75.328125 -69.40625 L 71.640625 -69.40625 C 69.742188 -69.40625 68.179688 -68.6875 66.953125 -67.25 C 65.722656 -65.820312 65.109375 -63.816406 65.109375 -61.234375 L 65.109375 1.84375 L 61.03125 1.84375 L 20.921875 -61.546875 L 20.515625 -61.546875 L 20.515625 -11.4375 C 20.515625 -8.914062 21.109375 -6.921875 22.296875 -5.453125 C 23.492188 -3.992188 25.039062 -3.265625 26.9375 -3.265625 L 30.625 -3.265625 L 30.625 0 Z M 6.328125 0 "/></g></g><g style="fill:#b4b4b4;fill-opacity:1;"><g transform="translate(808.139011, 309.429926)"><path style="stroke:none" d=""/></g></g></g></svg>